<svg xmlns="http://www.w3.org/2000/svg" viewBox="0 0 32 32" role="img" aria-hidden="true">
  <path d="M16 4c-6.6 0-12 5.2-12 11.7 0 2 .6 4 1.6 5.8L4 28l6.7-1.8c1.6.6 3.2.9 4.9.9 6.6 0 12-5.2 12-11.7S22.6 4 16 4z" fill="#25D366"/>
  <path d="M21.4 19c-.3-.2-1.9-.9-2.2-1-.3-.1-.5-.2-.7.2-.2.3-.8 1-.9 1.1-.2.2-.3.2-.6.1-.3-.2-1.2-.4-2.2-1.4-.8-.7-1.3-1.6-1.4-1.9-.1-.3 0-.4.2-.6.2-.2.3-.4.4-.5.1-.2.2-.3.3-.5.1-.2.1-.4 0-.5-.1-.2-.7-1.7-.9-2.3-.2-.6-.4-.5-.7-.5h-.6c-.2 0-.5.1-.7.4-.3.3-1 1-1 2.4s1 2.7 1.1 2.9c.1.2 1.9 3 4.5 4.1 2.7 1.1 2.7.8 3.2.8.5 0 1.6-.6 1.8-1.2.1-.6.1-1.1 0-1.2-.1-.1-.3-.2-.6-.4z" fill="#ffffff"/>
</svg>
